<svg xmlns="http://www.w3.org/2000/svg" width="130" height="61" viewBox="0 0 130 61">
    <defs>
        <linearGradient id="a" x1=".017%" x2="100.036%" y1="50.027%" y2="50.027%">
            <stop offset="0%" stop-color="#B2A43B"/>
            <stop offset="17%" stop-color="#E2CA16"/>
            <stop offset="28%" stop-color="#FFE000"/>
            <stop offset="48%" stop-color="#FFE000"/>
            <stop offset="54%" stop-color="#F6D907"/>
            <stop offset="63%" stop-color="#DEC61A"/>
            <stop offset="74%" stop-color="#B6A738"/>
            <stop offset="75%" stop-color="#B2A43B"/>
            <stop offset="82%" stop-color="#D8C121"/>
            <stop offset="88%" stop-color="#F4D70D"/>
            <stop offset="92%" stop-color="#FFDF06"/>
            <stop offset="100%" stop-color="#FFDF06"/>
        </linearGradient>
        <linearGradient id="b" x1="-.053%" y1="49.857%" y2="49.857%">
            <stop offset="0%" stop-color="#FFE000"/>
            <stop offset="37%" stop-color="#FFE000"/>
            <stop offset="44%" stop-color="#F3D609"/>
            <stop offset="56%" stop-color="#D2BD22"/>
            <stop offset="66%" stop-color="#B2A43B"/>
            <stop offset="71%" stop-color="#CBB728"/>
            <stop offset="78%" stop-color="#E7CD12"/>
            <stop offset="84%" stop-color="#F9DB05"/>
            <stop offset="88%" stop-color="#FFE000"/>
            <stop offset="92%" stop-color="#E6CC13"/>
            <stop offset="100%" stop-color="#B2A43B"/>
        </linearGradient>
    </defs>
    <g fill="none" fill-rule="nonzero">
        <path fill="#FFE000" d="M79.782 30.312h-.519c-3.277 0-5.853-.926-7.665-2.768a8.934 8.934 0 0 1-2.497-6.102 12.034 12.034 0 0 1 2.54-7.716c1.153-1.498 1.763 4.53 1.83 7.643v.128a4.6 4.6 0 0 0 1.221 2.947c1.025 1.013 2.68 1.486 4.92 1.424l.17 4.444z"/>
        <path fill="url(#a)" d="M71.433 14.014a13.692 13.692 0 0 1 4.73-4.026 16.721 16.721 0 0 1 17.522 1.32c.763.552 1.667 1.288 2.625 2.068 2.508 2.05 6.713 5.463 8.966 5.463h.097l-.036 4.402h-.03c-3.864 0-8.234-3.567-11.756-6.446-.91-.743-1.764-1.442-2.441-1.94a12.33 12.33 0 0 0-12.915-.97c-3.051 1.621-4.785 4.34-4.7 7.453v.129c.037.92.343 1.808.88 2.553a13.041 13.041 0 0 1-2.942-10.018"/>
        <path fill="url(#b)" d="M125.673 18.55c-2.527-.128-5.95-1.632-9.686-3.277-2.368-1.038-4.816-2.118-6.024-2.32-3.418-.614-9.637 1.282-12.207 4.5a41.518 41.518 0 0 0-1.391 1.84c-3.223 4.298-8.1 10.798-16.558 11.05l-.037-.104-.122-4.248v-.086c6.36-.184 10.15-5.23 13.19-9.288a67.143 67.143 0 0 1 1.488-1.94c3.711-4.597 11.597-6.893 16.37-6.07 1.733.294 4.192 1.374 7.036 2.627 2.167.951 5.951 2.615 7.69 2.897h.092l.159 4.42z"/>
        <path fill="#FFE000" d="M127.485 6.881c-2.44-4.094-6.103-6.378-10.003-6.267-7.537.178-9.057 7.655-10.058 12.602-.476 2.352-1.13 5.587-2.075 5.617l-.03 4.445h.17c4.413-.16 5.377-4.948 6.232-9.165 1.135-5.574 2.252-8.963 6.036-9.049 2.472 0 4.272 1.707 5.328 3.162a12.034 12.034 0 0 1 2.338 5.874s.213 2.493.183 4.445c1.63.098 2.893-.369 3.662-1.72 1.306-2.393.091-6.813-1.783-9.944zM15.374 38.52c-2.978.003-5.392 2.43-5.395 5.426v6.139a5.486 5.486 0 0 0 1.558 3.888 5.423 5.423 0 0 0 3.837 1.637h.72a5.423 5.423 0 0 0 3.841-1.635 5.486 5.486 0 0 0 1.56-3.89v-6.139c-.003-2.998-2.42-5.426-5.4-5.426h-.72zm.72 14.119h-.72a2.583 2.583 0 0 1-2.52-2.572v-6.14c0-1.4 1.128-2.534 2.52-2.534h.72a2.52 2.52 0 0 1 1.787.75c.473.48.737 1.128.734 1.803v6.139a2.583 2.583 0 0 1-2.52 2.56v-.006zM102.572 49.232a.796.796 0 0 0-.763.81v.331c0 3.37 2.777 5.194 5.383 5.194h1.013c2.643 0 5.45-1.842 5.45-5.194 0-3.351-3.051-4.186-5.541-4.91-1.654-.46-3.052-.86-3.052-1.946 0-1.302.989-2.137 2.52-2.137h.36c1.508 0 2.515.909 2.515 2.272 0 .433.339.79.77.81h1.336a.833.833 0 0 0 .732-.798c0-3.358-2.77-5.163-5.383-5.163h-.36c-2.691 0-5.42 1.725-5.42 5.028 0 3.302 3.052 4.186 5.493 4.868 1.654.454 3.052.853 3.052 1.958 0 1.332-1.031 2.265-2.515 2.265h-1.013c-1.483 0-2.514-.933-2.514-2.265v-.331a.788.788 0 0 0-.216-.568.78.78 0 0 0-.553-.243l-1.294.019zM50.92 41.374h.61a2.54 2.54 0 0 1 2.502 2.511V54.45c0 .438.352.794.788.798h1.294c.21.003.414-.08.562-.23a.782.782 0 0 0 .225-.568V43.885c-.013-2.955-2.39-5.348-5.328-5.365h-.61a5.349 5.349 0 0 0-3.815 1.565l-.147.147-.146-.147a5.3 5.3 0 0 0-3.827-1.565h-.61a5.43 5.43 0 0 0-2.344.528l-.183.092-.091-.19a.769.769 0 0 0-.702-.43H37.76a.785.785 0 0 0-.557.232.794.794 0 0 0-.23.56V54.45a.776.776 0 0 0 .222.57.767.767 0 0 0 .565.228h1.294a.796.796 0 0 0 .787-.798V43.885c.005-.67.275-1.312.75-1.783a2.507 2.507 0 0 1 1.783-.728h.61a2.54 2.54 0 0 1 2.503 2.511V54.45c0 .438.351.794.787.798h1.294c.21.003.414-.08.563-.23a.782.782 0 0 0 .224-.568V43.885a2.536 2.536 0 0 1 .76-1.794 2.507 2.507 0 0 1 1.804-.717zM92.355 41.423h.354c1.556 0 2.52.805 2.52 2.094 0 1.19-2.313 1.7-3.552 1.976l-.433.105c-2.246.675-4.632 1.657-4.632 4.775v.688c0 2.572 2.032 4.506 4.73 4.506h.653a6.645 6.645 0 0 0 3.723-1.228l.14-.104.122.129a2.812 2.812 0 0 0 1.978.84h.683a.78.78 0 0 0 .554-.243.788.788 0 0 0 .215-.567v-1.32a.802.802 0 0 0-.744-.816.569.569 0 0 1-.568-.54v-8.054c0-3.358-2.777-5.163-5.39-5.163h-.353c-2.994.004-5.42 2.446-5.42 5.458a.794.794 0 0 0 .228.576c.151.153.358.237.572.234h1.3a.785.785 0 0 0 .571-.234.794.794 0 0 0 .228-.576 2.54 2.54 0 0 1 2.52-2.536zm-.36 11.216h-.653a1.684 1.684 0 0 1-1.279-.4 1.704 1.704 0 0 1-.589-1.209v-.614a2.349 2.349 0 0 1 1.6-2.074 10.608 10.608 0 0 1 1.647-.553c.756-.2 1.488-.48 2.185-.835l.305-.153v3.358c.019 1.436-1.342 2.48-3.216 2.48zM24.938 43.946V54.45c0 .438.352.794.787.798h1.294a.767.767 0 0 0 .565-.229.776.776 0 0 0 .223-.57V43.843a2.533 2.533 0 0 1 2.526-2.455h.647c.694 0 1.356.29 1.831.798a.742.742 0 0 0 .537.214c.2 0 .39-.08.531-.22l.922-.97a.782.782 0 0 0 0-1.105h-.037a5.306 5.306 0 0 0-3.802-1.572h-.623c-.783 0-1.557.167-2.27.491l-.256.123-.086-.184a.768.768 0 0 0-.708-.43h-1.288a.785.785 0 0 0-.556.232.794.794 0 0 0-.23.56l-.007 4.622zM74.954 58.163h-.036a.694.694 0 0 0-.482.221l-.94.946a.75.75 0 0 0-.25.552c.001.207.09.403.244.54a5.294 5.294 0 0 0 3.79 1.566h.647c2.964 0 5.367-2.415 5.37-5.396v-17.28a.776.776 0 0 0-.226-.568.767.767 0 0 0-.567-.224H81.21a.78.78 0 0 0-.702.442l-.091.184-.183-.092a5.363 5.363 0 0 0-2.338-.534h-.69c-2.978.003-5.391 2.43-5.395 5.426v6.139a5.486 5.486 0 0 0 1.558 3.888 5.423 5.423 0 0 0 3.838 1.637h.72c.772 0 1.534-.17 2.234-.498l.299-.14v1.663a2.51 2.51 0 0 1-2.503 2.51h-.647a2.349 2.349 0 0 1-1.764-.718.828.828 0 0 0-.592-.264zm2.942-5.524h-.69a2.583 2.583 0 0 1-2.52-2.572v-6.14a2.528 2.528 0 0 1 2.52-2.516h.72a2.534 2.534 0 0 1 2.528 2.535v6.139a2.583 2.583 0 0 1-2.558 2.56v-.006zM60.978 52.442a.765.765 0 0 0-.763.768v1.264a.757.757 0 0 0 .218.55c.144.146.34.227.545.224h7.641a.736.736 0 0 0 .53-.231.745.745 0 0 0 .203-.543V53.21a.76.76 0 0 0-.733-.768h-2.331v-12.89a.795.795 0 0 0-.77-.738h-4.54a.765.765 0 0 0-.763.737v1.301c0 .424.342.768.763.768h2.52v10.822h-2.52z"/>
        <path fill="#FDDF0C" d="M63.01 32.283a.724.724 0 0 0-.756.7v2.572a.753.753 0 0 0 .756.743h2.527a.73.73 0 0 0 .523-.227.739.739 0 0 0 .203-.535v-2.553a.714.714 0 0 0-.726-.7H63.01z"/>
        <path fill="#FFE000" d="M5.408 32.283C2.439 32.269.02 34.675 0 37.66v16.79c0 .438.352.794.787.798h1.294a.773.773 0 0 0 .567-.229.782.782 0 0 0 .227-.57V43.524h3.613a.8.8 0 0 0 .793-.798V41.43a.782.782 0 0 0-.227-.57.773.773 0 0 0-.566-.229H2.875v-2.97a2.528 2.528 0 0 1 2.533-2.517h.646a2.52 2.52 0 0 1 1.831.798c.143.142.337.22.538.214.199 0 .39-.08.53-.22l.934-.94a.776.776 0 0 0 0-1.105h-.03a5.313 5.313 0 0 0-3.809-1.577l-.64-.031z"/>
    </g>
</svg>
